#!OML:ASF H:\Male1\Project 1\Capture day 1\Session 1\Male1.ASF
:FULLY-SPECIFIED
:DEGREES
350
root -7.71701 15.0164 4.67837 179.632 46.4793 -178.432
lowerback 10.0015 0.997025 -0.0102147
upperback 5.88801 1.72964 -1.92181
thorax 0.572696 1.07435 -2.1389
lowerneck -9.98755 -3.55053 -0.846848
upperneck 14.7882 -5.58568 7.2375
head 6.37488 -2.0588 1.98126
rclavicle -4.31363e-014 4.77083e-014
rhumerus -34.0756 34.6136 -105.591
rradius 90.2566
rwrist -38.1438
rhand -26.8325 -19.9001
rfingers 7.12502
rthumb -0.258358 -49.8797
lclavicle -4.31363e-014 4.77083e-014
lhumerus -41.686 -9.90438 86.4533
lradius 100.004
lwrist 32.3982
lhand -21.2356 32.1242
lfingers 7.12502
lthumb 5.14689 62.0417
rfemur -3.80342 14.6114 32.6845
rtibia 25.6225
rfoot -29.9179 -29.7969
rtoes -16.8249
lfemur -23.2445 -1.52631 -17.3526
ltibia 60.8261
lfoot -15.2771 18.7134
ltoes -9.33513
351
root -7.59 15.0192 4.56298 179.632 47.8001 -178.507
lowerback 10.0979 1.02974 0.0911389
upperback 5.886 1.77671 -1.96382
thorax 0.524366 1.09948 -2.24671
lowerneck -10.2328 -3.44808 -0.917656
upperneck 14.9009 -5.43531 7.11618
head 6.44487 -1.99555 1.9638
rclavicle 8.94531e-014 -3.57812e-014
rhumerus -34.0606 34.3814 -105.361
rradius 90.2701
rwrist -38.1091
rhand -26.9043 -20.0983
rfingers 7.12502
rthumb -0.327694 -50.0778
lclavicle 8.94531e-014 -3.57812e-014
lhumerus -41.1294 -10.1801 86.4904
lradius 99.5642
lwrist 31.896
lhand -20.9148 32.4894
lfingers 7.12502
lthumb 5.4566 62.3992
rfemur -2.6367 15.2796 32.8751
rtibia 24.8417
rfoot -29.2431 -29.745
rtoes -17.1578
lfemur -24.578 -3.28221 -17.4346
ltibia 58.919
lfoot -15.9461 20.0202
ltoes -9.0882
352
root -7.45425 15.0266 4.44376 179.621 49.0359 -178.618
lowerback 10.1353 1.061 0.139878
upperback 5.87807 1.81662 -1.99081
thorax 0.499767 1.11885 -2.30712
lowerneck -10.4829 -3.33422 -0.951195
upperneck 15.026 -5.26463 6.92699
head 6.51603 -1.92604 1.92056
rclavicle 1.8487e-014 4.77083e-015
rhumerus -34.1192 34.1368 -105.168
rradius 90.3057
rwrist -38.0668
rhand -26.7672 -20.4028
rfingers 7.12502
rthumb -0.195241 -50.3824
lclavicle 1.8487e-014 4.77083e-015
lhumerus -40.5963 -10.466 86.5353
lradius 99.1127
lwrist 31.3597
lhand -20.582 32.7796
lfingers 7.12502
lthumb 5.77796 62.6808
rfemur -1.32092 15.831 33.0235
rtibia 23.797
rfoot -28.5853 -29.5912
rtoes -17.0688
lfemur -25.7223 -5.04311 -17.3883
ltibia 56.565
lfoot -16.3895 21.087
ltoes -8.97982
353
root -7.31134 15.0367 4.32121 179.678 50.2211 -178.672
lowerback 10.1327 1.09851 0.211506
upperback 5.84854 1.86355 -1.98666
thorax 0.474426 1.14015 -2.34797
lowerneck -10.741 -3.20871 -0.960884
upperneck 15.1737 -5.07262 6.67849
head 6.593 -1.84954 1.85654
rclavicle 6.48038e-014 -9.54166e-015
rhumerus -34.2931 33.8558 -105.029
rradius 90.3895
rwrist -37.9817
rhand -26.5145 -20.7316
rfingers 7.12502
rthumb 0.0488275 -50.7113
lclavicle 6.48038e-014 -9.54166e-015
lhumerus -40.1049 -10.7552 86.5945
lradius 98.6677
lwrist 30.8802
lhand -20.2026 32.9779
lfingers 7.12502
lthumb 6.1442 62.8688
rfemur 0.126119 16.2143 33.1682
rtibia 22.4653
rfoot -27.8614 -29.2731
rtoes -16.8992
lfemur -26.719 -6.75883 -17.1471
ltibia 53.8686
lfoot -16.6097 21.7607
ltoes -8.96
354
root -7.16168 15.0473 4.19651 179.847 51.3328 -178.597
lowerback 10.1147 1.13461 0.342634
upperback 5.79687 1.91046 -1.93715
thorax 0.434666 1.16046 -2.37522
lowerneck -10.9973 -3.07555 -0.963882
upperneck 15.3333 -4.86444 6.39419
head 6.67232 -1.76814 1.78173
rclavicle -1.90833e-014 3.97569e-015
rhumerus -34.5864 33.5216 -104.936
rradius 90.538
rwrist -37.8405
rhand -26.2401 -21.0217
rfingers 7.12502
rthumb 0.313858 -51.0012
lclavicle -1.90833e-014 3.97569e-015
lhumerus -39.6634 -11.0529 86.6718
lradius 98.2525
lwrist 30.5254
lhand -19.746 33.0777
lfingers 7.12502
lthumb 6.58498 62.9553
rfemur 1.71422 16.4605 33.3666
rtibia 20.8437
rfoot -27.0429 -28.8729
rtoes -16.9812
lfemur -27.6008 -8.43861 -16.6748
ltibia 50.9489
lfoot -16.567 21.9912
ltoes -9.36906
355
root -7.00609 15.0568 4.07071 180.139 52.3303 -178.367
lowerback 10.1017 1.15833 0.555528
upperback 5.72559 1.94568 -1.84856
thorax 0.372591 1.17487 -2.40743
lowerneck -11.2324 -2.94373 -0.959637
upperneck 15.4831 -4.65621 6.10915
head 6.74539 -1.68739 1.70601
rclavicle 1.5704e-014 3.18055e-015
rhumerus -34.9766 33.1088 -104.883
rradius 90.7609
rwrist -37.6817
rhand -26.0198 -21.2336
rfingers 7.12502
rthumb 0.526623 -51.2127
lclavicle 1.5704e-014 3.18055e-015
lhumerus -39.2815 -11.3933 86.764
lradius 97.889
lwrist 30.3319
lhand -19.2192 33.0864
lfingers 7.12502
lthumb 7.09359 62.9475
rfemur 3.4393 16.6144 33.6488
rtibia 18.9628
rfoot -26.1809 -28.4567
rtoes -17.2973
lfemur -28.398 -10.1271 -15.9802
ltibia 47.9231
lfoot -16.3094 21.8216
ltoes -10.2781
356
root -6.84548 15.0642 3.94461 180.456 53.187 -178.094
lowerback 10.1095 1.16441 0.792801
upperback 5.6439 1.95986 -1.7544
thorax 0.288211 1.17885 -2.44657
lowerneck -11.4312 -2.82321 -0.944382
upperneck 15.5962 -4.46741 5.86242
head 6.80255 -1.61375 1.63954
rclavicle -8.20981e-014 6.36111e-015
rhumerus -35.3911 32.6217 -104.841
rradius 91.0384
rwrist -37.5411
rhand -26.0734 -21.2505
rfingers 7.12502
rthumb 0.474869 -51.2297
lclavicle -8.20981e-014 6.36111e-015
lhumerus -38.9577 -11.8028 86.8585
lradius 97.5931
lwrist 30.2929
lhand -18.6821 33.0487
lfingers 7.12502
lthumb 7.61202 62.8917
rfemur 5.29154 16.7031 33.9545
rtibia 16.8792
rfoot -25.3352 -28.0522
rtoes -17.5589
lfemur -29.1189 -11.8733 -15.1689
ltibia 44.8958
lfoot -15.9487 21.393
ltoes -11.37
357
root -6.68054 15.0679 3.81861 180.676 53.8988 -177.92
lowerback 10.1366 1.15208 0.96286
upperback 5.56459 1.94623 -1.68064
thorax 0.193091 1.16829 -2.46704
lowerneck -11.575 -2.71758 -0.921312
upperneck 15.6436 -4.30652 5.68289
head 6.83209 -1.54975 1.59143
rclavicle -2.34566e-014 9.54166e-015
rhumerus -35.7385 32.0971 -104.758
rradius 91.3233
rwrist -37.4318
rhand -26.0994 -21.2765
rfingers 7.12502
rthumb 0.449768 -51.2558
lclavicle -2.34566e-014 9.54166e-015
lhumerus -38.6883 -12.2722 86.9481
lradius 97.374
lwrist 30.3563
lhand -18.1501 33.0125
lfingers 7.12502
lthumb 8.12544 62.8363
rfemur 7.24792 16.7277 34.2097
rtibia 14.6738
rfoot -24.4889 -27.7139
rtoes -17.8189
lfemur -29.7681 -13.6969 -14.3623
ltibia 41.9681
lfoot -15.5833 20.8685
ltoes -12.4392
358
root -6.51162 15.0664 3.69152 180.693 54.498 -177.957
lowerback 10.1632 1.12923 0.999675
upperback 5.50051 1.91039 -1.64824
thorax 0.110071 1.1458 -2.45293
lowerneck -11.6453 -2.62471 -0.879154
upperneck 15.6113 -4.17382 5.57899
head 6.82593 -1.49438 1.56258
rclavicle -3.598e-014 3.18055e-014
rhumerus -35.9871 31.5759 -104.631
rradius 91.5854
rwrist -37.4
rhand -26.1857 -21.2937
rfingers 7.12502
rthumb 0.36643 -51.2732
lclavicle -3.598e-014 3.18055e-014
lhumerus -38.4778 -12.7739 87.0283
lradius 97.2334
lwrist 30.4573
lhand -17.5511 32.9797
lfingers 7.12502
lthumb 8.70351 62.7803
rfemur 9.2823 16.6636 34.3445
rtibia 12.4381
rfoot -23.6238 -27.4339
rtoes -18.2924
lfemur -30.3295 -15.5739 -13.6673
ltibia 39.2438
lfoot -15.3065 20.3818
ltoes -13.2209
359
root -6.33897 15.0594 3.56236 180.504 55.038 -178.211
lowerback 10.1655 1.10934 0.901442
upperback 5.45687 1.86949 -1.66267
thorax 0.0587435 1.12035 -2.40962
lowerneck -11.6464 -2.54437 -0.811992
upperneck 15.5107 -4.07067 5.55065
head 6.78826 -1.44734 1.55175
rclavicle -1.39149e-015 1.15295e-014
rhumerus -36.1293 31.0688 -104.468
rradius 91.797
rwrist -37.4042
rhand -26.2744 -21.3426
rfingers 7.12502
rthumb 0.280744 -51.3221
lclavicle -1.39149e-015 1.15295e-014
lhumerus -38.3138 -13.2781 87.0894
lradius 97.1592
lwrist 30.5657
lhand -16.8456 32.9214
lfingers 7.12502
lthumb 9.38435 62.6924
rfemur 11.3587 16.511 34.3386
rtibia 10.2372
rfoot -22.8006 -27.1162
rtoes -18.762
lfemur -30.7914 -17.4162 -13.1259
ltibia 36.8353
lfoot -15.2142 19.9362
ltoes -13.4803
360
root -6.16306 15.0473 3.43094 180.174 55.5803 -178.591
lowerback 10.145 1.10914 0.711849
upperback 5.43671 1.84942 -1.71065
thorax 0.0436758 1.10566 -2.35047
lowerneck -11.6048 -2.4803 -0.727285
upperneck 15.3766 -4.00202 5.59758
head 6.73519 -1.41009 1.55936
rclavicle 9.14409e-014 -2.18663e-014
rhumerus -36.1902 30.5733 -104.292
rradius 91.9548
rwrist -37.4493
rhand -26.3887 -21.4365
rfingers 7.12502
rthumb 0.170289 -51.4161
lclavicle 9.14409e-014 -2.18663e-014
lhumerus -38.1711 -13.7679 87.1225
lradius 97.134
lwrist 30.6993
lhand -16.0427 32.8144
lfingers 7.12502
lthumb 10.159 62.5491
rfemur 13.4472 15.677 34.0993
rtibia 8.06212
rfoot -21.8904 -26.1808
rtoes -19.4653
lfemur -31.131 -19.0855 -12.7375
ltibia 34.8602
lfoot -15.2681 19.566
ltoes -13.4598
361
root -5.98581 15.032 3.2973 179.89 56.2129 -178.896
lowerback 10.1051 1.15159 0.557235
upperback 5.42675 1.88988 -1.77269
thorax 0.0542901 1.12282 -2.33058
lowerneck -11.5569 -2.43715 -0.623129
upperneck 15.2509 -3.9751 5.71386
head 6.68653 -1.38485 1.58227
rclavicle 2.21645e-014 -3.57812e-015
rhumerus -36.2116 30.0588 -104.136
rradius 92.0709
rwrist -37.5212
rhand -26.4796 -21.564
rfingers 7.12502
rthumb 0.0825146 -51.5437
lclavicle 2.21645e-014 -3.57812e-015
lhumerus -38.0295 -14.2508 87.1176
lradius 97.1479
lwrist 30.8908
lhand -15.1858 32.6631
lfingers 7.12502
lthumb 10.9855 62.3557
rfemur 15.5848 14.9352 33.8539
rtibia 5.81054
rfoot -20.8297 -25.2909
rtoes -20.2738
lfemur -31.35 -20.4023 -12.4392
ltibia 33.42
lfoot -15.4314 19.219
ltoes -13.2394
362
root -5.80776 15.0151 3.16114 179.807 56.9642 -178.965
lowerback 10.0342 1.23672 0.524015
upperback 5.42125 1.9971 -1.82551
thorax 0.0930159 1.17567 -2.37463
lowerneck -11.5346 -2.41308 -0.504134
upperneck 15.164 -3.985 5.87906
head 6.65705 -1.37011 1.61495
rclavicle -1.63003e-014 3.18055e-015
rhumerus -36.2285 29.5187 -104.014
rradius 92.1613
rwrist -37.5895
rhand -26.5323 -21.7331
rfingers 7.12502
rthumb 0.031678 -51.7129
lclavicle -1.63003e-014 3.18055e-015
lhumerus -37.8796 -14.7178 87.0734
lradius 97.1959
lwrist 31.144
lhand -14.357 32.4821
lfingers 7.12502
lthumb 11.7848 62.1305
rfemur 17.9133 14.316 33.7002
rtibia 3.16202
rfoot -19.3963 -24.4713
rtoes -21.2316
lfemur -31.4398 -21.2331 -12.2029
ltibia 32.5748
lfoot -15.6093 18.8198
ltoes -13.0818
